<mxfile host="app.diagrams.net" modified="2023-02-24T14:25:22.340Z" agent="5.0 (Windows NT 10.0; Win64; x64) AppleWebKit/537.36 (KHTML, like Gecko) Chrome/110.0.0.0 Safari/537.36" etag="enImuNofAb5JYj2L-AEF" version="20.8.23" type="github">
  <diagram id="C5RBs43oDa-KdzZeNtuy" name="Page-1">
    <mxGraphModel dx="2261" dy="796" grid="1" gridSize="10" guides="1" tooltips="1" connect="1" arrows="1" fold="1" page="1" pageScale="1" pageWidth="827" pageHeight="1169" math="0" shadow="0">
      <root>
        <mxCell id="WIyWlLk6GJQsqaUBKTNV-0" />
        <mxCell id="WIyWlLk6GJQsqaUBKTNV-1" parent="WIyWlLk6GJQsqaUBKTNV-0" />
        <mxCell id="zkfFHV4jXpPFQw0GAbJ--13" value="Field" style="swimlane;fontStyle=0;align=center;verticalAlign=top;childLayout=stackLayout;horizontal=1;startSize=26;horizontalStack=0;resizeParent=1;resizeLast=0;collapsible=1;marginBottom=0;rounded=0;shadow=0;strokeWidth=1;" parent="WIyWlLk6GJQsqaUBKTNV-1" vertex="1">
          <mxGeometry x="300" y="10" width="160" height="120" as="geometry">
            <mxRectangle x="300" y="80" width="170" height="26" as="alternateBounds" />
          </mxGeometry>
        </mxCell>
        <mxCell id="zkfFHV4jXpPFQw0GAbJ--14" value="- _value&#xa;+ value" style="text;align=left;verticalAlign=top;spacingLeft=4;spacingRight=4;overflow=hidden;rotatable=0;points=[[0,0.5],[1,0.5]];portConstraint=eastwest;" parent="zkfFHV4jXpPFQw0GAbJ--13" vertex="1">
          <mxGeometry y="26" width="160" height="44" as="geometry" />
        </mxCell>
        <mxCell id="zkfFHV4jXpPFQw0GAbJ--15" value="" style="line;html=1;strokeWidth=1;align=left;verticalAlign=middle;spacingTop=-1;spacingLeft=3;spacingRight=3;rotatable=0;labelPosition=right;points=[];portConstraint=eastwest;" parent="zkfFHV4jXpPFQw0GAbJ--13" vertex="1">
          <mxGeometry y="70" width="160" height="8" as="geometry" />
        </mxCell>
        <mxCell id="sPGVA4LzxNEKORVbQ_Oa-6" value="&lt;span style=&quot;color: rgb(0, 0, 0); font-family: Helvetica; font-size: 12px; font-style: normal; font-variant-ligatures: normal; font-variant-caps: normal; font-weight: 400; letter-spacing: normal; orphans: 2; text-indent: 0px; text-transform: none; widows: 2; word-spacing: 0px; -webkit-text-stroke-width: 0px; background-color: rgb(251, 251, 251); text-decoration-thickness: initial; text-decoration-style: initial; text-decoration-color: initial; float: none; display: inline !important;&quot;&gt;- __init__()&lt;/span&gt;&lt;br style=&quot;border-color: var(--border-color); padding: 0px; margin: 0px; color: rgb(0, 0, 0); font-family: Helvetica; font-size: 12px; font-style: normal; font-variant-ligatures: normal; font-variant-caps: normal; font-weight: 400; letter-spacing: normal; orphans: 2; text-indent: 0px; text-transform: none; widows: 2; word-spacing: 0px; -webkit-text-stroke-width: 0px; background-color: rgb(251, 251, 251); text-decoration-thickness: initial; text-decoration-style: initial; text-decoration-color: initial;&quot;&gt;&lt;span style=&quot;color: rgb(0, 0, 0); font-family: Helvetica; font-size: 12px; font-style: normal; font-variant-ligatures: normal; font-variant-caps: normal; font-weight: 400; letter-spacing: normal; orphans: 2; text-indent: 0px; text-transform: none; widows: 2; word-spacing: 0px; -webkit-text-stroke-width: 0px; background-color: rgb(251, 251, 251); text-decoration-thickness: initial; text-decoration-style: initial; text-decoration-color: initial; float: none; display: inline !important;&quot;&gt;+ value()&lt;/span&gt;" style="text;html=1;align=left;verticalAlign=middle;resizable=0;points=[];autosize=1;strokeColor=none;fillColor=none;" vertex="1" parent="zkfFHV4jXpPFQw0GAbJ--13">
          <mxGeometry y="78" width="160" height="40" as="geometry" />
        </mxCell>
        <mxCell id="sPGVA4LzxNEKORVbQ_Oa-18" style="edgeStyle=orthogonalEdgeStyle;rounded=0;orthogonalLoop=1;jettySize=auto;html=1;endArrow=none;endFill=0;" edge="1" parent="WIyWlLk6GJQsqaUBKTNV-1" source="xpo1dGQnhpJa0DVz_Br3-12">
          <mxGeometry relative="1" as="geometry">
            <mxPoint x="380" y="150" as="targetPoint" />
          </mxGeometry>
        </mxCell>
        <mxCell id="xpo1dGQnhpJa0DVz_Br3-12" value="Email" style="swimlane;fontStyle=0;align=center;verticalAlign=top;childLayout=stackLayout;horizontal=1;startSize=26;horizontalStack=0;resizeParent=1;resizeLast=0;collapsible=1;marginBottom=0;rounded=0;shadow=0;strokeWidth=1;" parent="WIyWlLk6GJQsqaUBKTNV-1" vertex="1">
          <mxGeometry x="300" y="180" width="160" height="90" as="geometry">
            <mxRectangle x="300" y="80" width="170" height="26" as="alternateBounds" />
          </mxGeometry>
        </mxCell>
        <mxCell id="xpo1dGQnhpJa0DVz_Br3-13" value="- _value&#xa;" style="text;align=left;verticalAlign=top;spacingLeft=4;spacingRight=4;overflow=hidden;rotatable=0;points=[[0,0.5],[1,0.5]];portConstraint=eastwest;" parent="xpo1dGQnhpJa0DVz_Br3-12" vertex="1">
          <mxGeometry y="26" width="160" height="26" as="geometry" />
        </mxCell>
        <mxCell id="xpo1dGQnhpJa0DVz_Br3-14" value="" style="line;html=1;strokeWidth=1;align=left;verticalAlign=middle;spacingTop=-1;spacingLeft=3;spacingRight=3;rotatable=0;labelPosition=right;points=[];portConstraint=eastwest;" parent="xpo1dGQnhpJa0DVz_Br3-12" vertex="1">
          <mxGeometry y="52" width="160" height="8" as="geometry" />
        </mxCell>
        <mxCell id="sPGVA4LzxNEKORVbQ_Oa-17" style="edgeStyle=orthogonalEdgeStyle;rounded=0;orthogonalLoop=1;jettySize=auto;html=1;endArrow=none;endFill=0;" edge="1" parent="WIyWlLk6GJQsqaUBKTNV-1" source="xpo1dGQnhpJa0DVz_Br3-15">
          <mxGeometry relative="1" as="geometry">
            <mxPoint x="200" y="150" as="targetPoint" />
          </mxGeometry>
        </mxCell>
        <mxCell id="xpo1dGQnhpJa0DVz_Br3-15" value="Birthday" style="swimlane;fontStyle=0;align=center;verticalAlign=top;childLayout=stackLayout;horizontal=1;startSize=26;horizontalStack=0;resizeParent=1;resizeLast=0;collapsible=1;marginBottom=0;rounded=0;shadow=0;strokeWidth=1;" parent="WIyWlLk6GJQsqaUBKTNV-1" vertex="1">
          <mxGeometry x="120" y="180" width="160" height="90" as="geometry">
            <mxRectangle x="300" y="80" width="170" height="26" as="alternateBounds" />
          </mxGeometry>
        </mxCell>
        <mxCell id="xpo1dGQnhpJa0DVz_Br3-16" value="- _value&#xa;" style="text;align=left;verticalAlign=top;spacingLeft=4;spacingRight=4;overflow=hidden;rotatable=0;points=[[0,0.5],[1,0.5]];portConstraint=eastwest;" parent="xpo1dGQnhpJa0DVz_Br3-15" vertex="1">
          <mxGeometry y="26" width="160" height="26" as="geometry" />
        </mxCell>
        <mxCell id="xpo1dGQnhpJa0DVz_Br3-17" value="" style="line;html=1;strokeWidth=1;align=left;verticalAlign=middle;spacingTop=-1;spacingLeft=3;spacingRight=3;rotatable=0;labelPosition=right;points=[];portConstraint=eastwest;" parent="xpo1dGQnhpJa0DVz_Br3-15" vertex="1">
          <mxGeometry y="52" width="160" height="8" as="geometry" />
        </mxCell>
        <mxCell id="sPGVA4LzxNEKORVbQ_Oa-22" style="edgeStyle=orthogonalEdgeStyle;rounded=0;orthogonalLoop=1;jettySize=auto;html=1;endArrow=block;endFill=1;" edge="1" parent="xpo1dGQnhpJa0DVz_Br3-15" source="sPGVA4LzxNEKORVbQ_Oa-9">
          <mxGeometry relative="1" as="geometry">
            <mxPoint x="480" y="180" as="targetPoint" />
            <Array as="points">
              <mxPoint x="80" y="130" />
              <mxPoint x="480" y="130" />
              <mxPoint x="480" y="180" />
            </Array>
          </mxGeometry>
        </mxCell>
        <mxCell id="sPGVA4LzxNEKORVbQ_Oa-9" value="&lt;span style=&quot;color: rgb(0, 0, 0); font-family: Helvetica; font-size: 12px; font-style: normal; font-variant-ligatures: normal; font-variant-caps: normal; font-weight: 400; letter-spacing: normal; orphans: 2; text-indent: 0px; text-transform: none; widows: 2; word-spacing: 0px; -webkit-text-stroke-width: 0px; background-color: rgb(251, 251, 251); text-decoration-thickness: initial; text-decoration-style: initial; text-decoration-color: initial; float: none; display: inline !important;&quot;&gt;+ value()&lt;/span&gt;&lt;br&gt;" style="text;html=1;align=left;verticalAlign=middle;resizable=0;points=[];autosize=1;strokeColor=none;fillColor=none;" vertex="1" parent="xpo1dGQnhpJa0DVz_Br3-15">
          <mxGeometry y="60" width="160" height="30" as="geometry" />
        </mxCell>
        <mxCell id="sPGVA4LzxNEKORVbQ_Oa-19" style="edgeStyle=orthogonalEdgeStyle;rounded=0;orthogonalLoop=1;jettySize=auto;html=1;endArrow=none;endFill=0;" edge="1" parent="WIyWlLk6GJQsqaUBKTNV-1" source="xpo1dGQnhpJa0DVz_Br3-18">
          <mxGeometry relative="1" as="geometry">
            <mxPoint x="380" y="150" as="targetPoint" />
            <Array as="points">
              <mxPoint x="560" y="150" />
            </Array>
          </mxGeometry>
        </mxCell>
        <mxCell id="xpo1dGQnhpJa0DVz_Br3-18" value="Name" style="swimlane;fontStyle=0;align=center;verticalAlign=top;childLayout=stackLayout;horizontal=1;startSize=26;horizontalStack=0;resizeParent=1;resizeLast=0;collapsible=1;marginBottom=0;rounded=0;shadow=0;strokeWidth=1;" parent="WIyWlLk6GJQsqaUBKTNV-1" vertex="1">
          <mxGeometry x="480" y="180" width="160" height="90" as="geometry">
            <mxRectangle x="300" y="80" width="170" height="26" as="alternateBounds" />
          </mxGeometry>
        </mxCell>
        <mxCell id="xpo1dGQnhpJa0DVz_Br3-19" value="- _value&#xa;" style="text;align=left;verticalAlign=top;spacingLeft=4;spacingRight=4;overflow=hidden;rotatable=0;points=[[0,0.5],[1,0.5]];portConstraint=eastwest;" parent="xpo1dGQnhpJa0DVz_Br3-18" vertex="1">
          <mxGeometry y="26" width="160" height="26" as="geometry" />
        </mxCell>
        <mxCell id="xpo1dGQnhpJa0DVz_Br3-20" value="" style="line;html=1;strokeWidth=1;align=left;verticalAlign=middle;spacingTop=-1;spacingLeft=3;spacingRight=3;rotatable=0;labelPosition=right;points=[];portConstraint=eastwest;" parent="xpo1dGQnhpJa0DVz_Br3-18" vertex="1">
          <mxGeometry y="52" width="160" height="8" as="geometry" />
        </mxCell>
        <mxCell id="sPGVA4LzxNEKORVbQ_Oa-24" style="edgeStyle=orthogonalEdgeStyle;rounded=0;orthogonalLoop=1;jettySize=auto;html=1;endArrow=block;endFill=1;" edge="1" parent="xpo1dGQnhpJa0DVz_Br3-18" source="sPGVA4LzxNEKORVbQ_Oa-11">
          <mxGeometry relative="1" as="geometry">
            <mxPoint x="160" y="180" as="targetPoint" />
            <Array as="points">
              <mxPoint x="160" y="180" />
            </Array>
          </mxGeometry>
        </mxCell>
        <mxCell id="sPGVA4LzxNEKORVbQ_Oa-11" value="+ value()" style="text;html=1;align=left;verticalAlign=middle;resizable=0;points=[];autosize=1;strokeColor=none;fillColor=none;" vertex="1" parent="xpo1dGQnhpJa0DVz_Br3-18">
          <mxGeometry y="60" width="160" height="30" as="geometry" />
        </mxCell>
        <mxCell id="sPGVA4LzxNEKORVbQ_Oa-20" style="edgeStyle=orthogonalEdgeStyle;rounded=0;orthogonalLoop=1;jettySize=auto;html=1;exitX=0.5;exitY=0;exitDx=0;exitDy=0;endArrow=none;endFill=0;" edge="1" parent="WIyWlLk6GJQsqaUBKTNV-1" source="xpo1dGQnhpJa0DVz_Br3-21">
          <mxGeometry relative="1" as="geometry">
            <mxPoint x="560" y="150" as="targetPoint" />
            <Array as="points">
              <mxPoint x="740" y="150" />
            </Array>
          </mxGeometry>
        </mxCell>
        <mxCell id="xpo1dGQnhpJa0DVz_Br3-21" value="Phone" style="swimlane;fontStyle=0;align=center;verticalAlign=top;childLayout=stackLayout;horizontal=1;startSize=26;horizontalStack=0;resizeParent=1;resizeLast=0;collapsible=1;marginBottom=0;rounded=0;shadow=0;strokeWidth=1;" parent="WIyWlLk6GJQsqaUBKTNV-1" vertex="1">
          <mxGeometry x="660" y="180" width="160" height="100" as="geometry">
            <mxRectangle x="300" y="80" width="170" height="26" as="alternateBounds" />
          </mxGeometry>
        </mxCell>
        <mxCell id="xpo1dGQnhpJa0DVz_Br3-22" value="- _value&#xa;" style="text;align=left;verticalAlign=top;spacingLeft=4;spacingRight=4;overflow=hidden;rotatable=0;points=[[0,0.5],[1,0.5]];portConstraint=eastwest;" parent="xpo1dGQnhpJa0DVz_Br3-21" vertex="1">
          <mxGeometry y="26" width="160" height="26" as="geometry" />
        </mxCell>
        <mxCell id="xpo1dGQnhpJa0DVz_Br3-23" value="" style="line;html=1;strokeWidth=1;align=left;verticalAlign=middle;spacingTop=-1;spacingLeft=3;spacingRight=3;rotatable=0;labelPosition=right;points=[];portConstraint=eastwest;" parent="xpo1dGQnhpJa0DVz_Br3-21" vertex="1">
          <mxGeometry y="52" width="160" height="8" as="geometry" />
        </mxCell>
        <mxCell id="sPGVA4LzxNEKORVbQ_Oa-25" style="edgeStyle=orthogonalEdgeStyle;rounded=0;orthogonalLoop=1;jettySize=auto;html=1;endArrow=block;endFill=1;" edge="1" parent="xpo1dGQnhpJa0DVz_Br3-21" source="sPGVA4LzxNEKORVbQ_Oa-12">
          <mxGeometry relative="1" as="geometry">
            <mxPoint y="180" as="targetPoint" />
            <Array as="points">
              <mxPoint x="80" y="140" />
              <mxPoint y="140" />
            </Array>
          </mxGeometry>
        </mxCell>
        <mxCell id="sPGVA4LzxNEKORVbQ_Oa-12" value="+ value()&lt;br&gt;+ preformatting()" style="text;html=1;align=left;verticalAlign=middle;resizable=0;points=[];autosize=1;strokeColor=none;fillColor=none;" vertex="1" parent="xpo1dGQnhpJa0DVz_Br3-21">
          <mxGeometry y="60" width="160" height="40" as="geometry" />
        </mxCell>
        <mxCell id="sPGVA4LzxNEKORVbQ_Oa-15" style="edgeStyle=orthogonalEdgeStyle;rounded=0;orthogonalLoop=1;jettySize=auto;html=1;endArrow=block;endFill=0;" edge="1" parent="WIyWlLk6GJQsqaUBKTNV-1" source="xpo1dGQnhpJa0DVz_Br3-24" target="sPGVA4LzxNEKORVbQ_Oa-6">
          <mxGeometry relative="1" as="geometry">
            <Array as="points">
              <mxPoint x="20" y="150" />
              <mxPoint x="380" y="150" />
            </Array>
          </mxGeometry>
        </mxCell>
        <mxCell id="xpo1dGQnhpJa0DVz_Br3-24" value="Address" style="swimlane;fontStyle=0;align=center;verticalAlign=top;childLayout=stackLayout;horizontal=1;startSize=26;horizontalStack=0;resizeParent=1;resizeLast=0;collapsible=1;marginBottom=0;rounded=0;shadow=0;strokeWidth=1;" parent="WIyWlLk6GJQsqaUBKTNV-1" vertex="1">
          <mxGeometry x="-60" y="180" width="160" height="90" as="geometry">
            <mxRectangle x="300" y="80" width="170" height="26" as="alternateBounds" />
          </mxGeometry>
        </mxCell>
        <mxCell id="xpo1dGQnhpJa0DVz_Br3-25" value="- _value&#xa;" style="text;align=left;verticalAlign=top;spacingLeft=4;spacingRight=4;overflow=hidden;rotatable=0;points=[[0,0.5],[1,0.5]];portConstraint=eastwest;" parent="xpo1dGQnhpJa0DVz_Br3-24" vertex="1">
          <mxGeometry y="26" width="160" height="26" as="geometry" />
        </mxCell>
        <mxCell id="xpo1dGQnhpJa0DVz_Br3-26" value="" style="line;html=1;strokeWidth=1;align=left;verticalAlign=middle;spacingTop=-1;spacingLeft=3;spacingRight=3;rotatable=0;labelPosition=right;points=[];portConstraint=eastwest;" parent="xpo1dGQnhpJa0DVz_Br3-24" vertex="1">
          <mxGeometry y="52" width="160" height="8" as="geometry" />
        </mxCell>
        <mxCell id="sPGVA4LzxNEKORVbQ_Oa-21" style="edgeStyle=orthogonalEdgeStyle;rounded=0;orthogonalLoop=1;jettySize=auto;html=1;endArrow=block;endFill=1;" edge="1" parent="xpo1dGQnhpJa0DVz_Br3-24" source="sPGVA4LzxNEKORVbQ_Oa-8">
          <mxGeometry relative="1" as="geometry">
            <mxPoint x="640" y="180" as="targetPoint" />
            <Array as="points">
              <mxPoint x="80" y="140" />
              <mxPoint x="640" y="140" />
              <mxPoint x="640" y="180" />
            </Array>
          </mxGeometry>
        </mxCell>
        <mxCell id="sPGVA4LzxNEKORVbQ_Oa-8" value="+ value()" style="text;html=1;align=left;verticalAlign=middle;resizable=0;points=[];autosize=1;strokeColor=none;fillColor=none;" vertex="1" parent="xpo1dGQnhpJa0DVz_Br3-24">
          <mxGeometry y="60" width="160" height="30" as="geometry" />
        </mxCell>
        <mxCell id="sPGVA4LzxNEKORVbQ_Oa-23" style="edgeStyle=orthogonalEdgeStyle;rounded=0;orthogonalLoop=1;jettySize=auto;html=1;endArrow=block;endFill=1;" edge="1" parent="WIyWlLk6GJQsqaUBKTNV-1" source="sPGVA4LzxNEKORVbQ_Oa-10">
          <mxGeometry relative="1" as="geometry">
            <mxPoint x="620" y="360" as="targetPoint" />
            <Array as="points">
              <mxPoint x="380" y="300" />
              <mxPoint x="620" y="300" />
              <mxPoint x="620" y="360" />
            </Array>
          </mxGeometry>
        </mxCell>
        <mxCell id="sPGVA4LzxNEKORVbQ_Oa-10" value="+ value()" style="text;html=1;align=left;verticalAlign=middle;resizable=0;points=[];autosize=1;strokeColor=none;fillColor=none;" vertex="1" parent="WIyWlLk6GJQsqaUBKTNV-1">
          <mxGeometry x="300" y="240" width="160" height="30" as="geometry" />
        </mxCell>
        <mxCell id="sPGVA4LzxNEKORVbQ_Oa-50" style="edgeStyle=orthogonalEdgeStyle;rounded=0;orthogonalLoop=1;jettySize=auto;html=1;entryX=0.994;entryY=0.115;entryDx=0;entryDy=0;entryPerimeter=0;endArrow=block;endFill=1;" edge="1" parent="WIyWlLk6GJQsqaUBKTNV-1" source="sPGVA4LzxNEKORVbQ_Oa-26" target="sPGVA4LzxNEKORVbQ_Oa-42">
          <mxGeometry relative="1" as="geometry">
            <Array as="points">
              <mxPoint x="520" y="370" />
              <mxPoint x="520" y="442" />
            </Array>
          </mxGeometry>
        </mxCell>
        <mxCell id="sPGVA4LzxNEKORVbQ_Oa-26" value="Record" style="swimlane;fontStyle=0;align=center;verticalAlign=top;childLayout=stackLayout;horizontal=1;startSize=26;horizontalStack=0;resizeParent=1;resizeLast=0;collapsible=1;marginBottom=0;rounded=0;shadow=0;strokeWidth=1;" vertex="1" parent="WIyWlLk6GJQsqaUBKTNV-1">
          <mxGeometry x="540" y="360" width="160" height="348" as="geometry">
            <mxRectangle x="300" y="80" width="170" height="26" as="alternateBounds" />
          </mxGeometry>
        </mxCell>
        <mxCell id="sPGVA4LzxNEKORVbQ_Oa-27" value="+ name&#xa;+ phones&#xa;+ birthday&#xa;+ emails&#xa;+ address " style="text;align=left;verticalAlign=top;spacingLeft=4;spacingRight=4;overflow=hidden;rotatable=0;points=[[0,0.5],[1,0.5]];portConstraint=eastwest;" vertex="1" parent="sPGVA4LzxNEKORVbQ_Oa-26">
          <mxGeometry y="26" width="160" height="84" as="geometry" />
        </mxCell>
        <mxCell id="sPGVA4LzxNEKORVbQ_Oa-28" value="" style="line;html=1;strokeWidth=1;align=left;verticalAlign=middle;spacingTop=-1;spacingLeft=3;spacingRight=3;rotatable=0;labelPosition=right;points=[];portConstraint=eastwest;" vertex="1" parent="sPGVA4LzxNEKORVbQ_Oa-26">
          <mxGeometry y="110" width="160" height="8" as="geometry" />
        </mxCell>
        <mxCell id="sPGVA4LzxNEKORVbQ_Oa-31" value="+&amp;nbsp;add_address()&lt;br&gt;+&amp;nbsp;add_birthday()&lt;br&gt;+&amp;nbsp;add_phone()&lt;br&gt;+&amp;nbsp;add_email()&lt;br&gt;+ change_address()&lt;br&gt;+&amp;nbsp;change_birthday()&lt;br&gt;+&amp;nbsp;change_phone()&lt;br&gt;+&amp;nbsp;change_email()&lt;br&gt;+&amp;nbsp;remove_address()&lt;br&gt;+&amp;nbsp;remove_birthday()&lt;br&gt;+&amp;nbsp;remove_phone()&lt;br&gt;+&amp;nbsp;remove_email()&lt;br&gt;+&amp;nbsp;days_to_birthday()&lt;br&gt;+&amp;nbsp;get_phones_list()&lt;br&gt;+&amp;nbsp;get_emails_str()" style="text;html=1;align=left;verticalAlign=middle;resizable=0;points=[];autosize=1;strokeColor=none;fillColor=none;" vertex="1" parent="sPGVA4LzxNEKORVbQ_Oa-26">
          <mxGeometry y="118" width="160" height="230" as="geometry" />
        </mxCell>
        <mxCell id="sPGVA4LzxNEKORVbQ_Oa-32" value="UserDict" style="swimlane;fontStyle=0;align=center;verticalAlign=top;childLayout=stackLayout;horizontal=1;startSize=26;horizontalStack=0;resizeParent=1;resizeLast=0;collapsible=1;marginBottom=0;rounded=0;shadow=0;strokeWidth=1;" vertex="1" parent="WIyWlLk6GJQsqaUBKTNV-1">
          <mxGeometry x="220" y="360" width="160" height="34" as="geometry">
            <mxRectangle x="300" y="80" width="170" height="26" as="alternateBounds" />
          </mxGeometry>
        </mxCell>
        <mxCell id="sPGVA4LzxNEKORVbQ_Oa-34" value="" style="line;html=1;strokeWidth=1;align=left;verticalAlign=middle;spacingTop=-1;spacingLeft=3;spacingRight=3;rotatable=0;labelPosition=right;points=[];portConstraint=eastwest;" vertex="1" parent="sPGVA4LzxNEKORVbQ_Oa-32">
          <mxGeometry y="26" width="160" height="8" as="geometry" />
        </mxCell>
        <mxCell id="sPGVA4LzxNEKORVbQ_Oa-47" style="edgeStyle=orthogonalEdgeStyle;rounded=0;orthogonalLoop=1;jettySize=auto;html=1;exitX=0.5;exitY=0;exitDx=0;exitDy=0;entryX=0.5;entryY=1;entryDx=0;entryDy=0;endArrow=block;endFill=0;" edge="1" parent="WIyWlLk6GJQsqaUBKTNV-1" source="sPGVA4LzxNEKORVbQ_Oa-37" target="sPGVA4LzxNEKORVbQ_Oa-32">
          <mxGeometry relative="1" as="geometry">
            <Array as="points">
              <mxPoint x="170" y="410" />
              <mxPoint x="300" y="410" />
            </Array>
          </mxGeometry>
        </mxCell>
        <mxCell id="sPGVA4LzxNEKORVbQ_Oa-37" value="NoteBook&#xa;" style="swimlane;fontStyle=0;align=center;verticalAlign=top;childLayout=stackLayout;horizontal=1;startSize=26;horizontalStack=0;resizeParent=1;resizeLast=0;collapsible=1;marginBottom=0;rounded=0;shadow=0;strokeWidth=1;" vertex="1" parent="WIyWlLk6GJQsqaUBKTNV-1">
          <mxGeometry x="90" y="430" width="160" height="104" as="geometry">
            <mxRectangle x="300" y="80" width="170" height="26" as="alternateBounds" />
          </mxGeometry>
        </mxCell>
        <mxCell id="sPGVA4LzxNEKORVbQ_Oa-39" value="" style="line;html=1;strokeWidth=1;align=left;verticalAlign=middle;spacingTop=-1;spacingLeft=3;spacingRight=3;rotatable=0;labelPosition=right;points=[];portConstraint=eastwest;" vertex="1" parent="sPGVA4LzxNEKORVbQ_Oa-37">
          <mxGeometry y="26" width="160" height="8" as="geometry" />
        </mxCell>
        <mxCell id="sPGVA4LzxNEKORVbQ_Oa-41" value="&lt;span style=&quot;color: rgb(0, 0, 0); font-family: Helvetica; font-size: 12px; font-style: normal; font-variant-ligatures: normal; font-variant-caps: normal; font-weight: 400; letter-spacing: normal; orphans: 2; text-indent: 0px; text-transform: none; widows: 2; word-spacing: 0px; -webkit-text-stroke-width: 0px; background-color: rgb(251, 251, 251); text-decoration-thickness: initial; text-decoration-style: initial; text-decoration-color: initial; float: none; display: inline !important;&quot;&gt;+&amp;nbsp;&lt;/span&gt;add_record()&lt;br&gt;+&amp;nbsp;iterrator()&lt;br&gt;+&amp;nbsp;remove_record()&lt;br&gt;&lt;span style=&quot;background-color: initial;&quot;&gt;+&amp;nbsp;&lt;/span&gt;sort_by_tags()" style="text;html=1;align=left;verticalAlign=middle;resizable=0;points=[];autosize=1;strokeColor=none;fillColor=none;" vertex="1" parent="sPGVA4LzxNEKORVbQ_Oa-37">
          <mxGeometry y="34" width="160" height="70" as="geometry" />
        </mxCell>
        <mxCell id="sPGVA4LzxNEKORVbQ_Oa-48" style="edgeStyle=orthogonalEdgeStyle;rounded=0;orthogonalLoop=1;jettySize=auto;html=1;entryX=0.494;entryY=1;entryDx=0;entryDy=0;entryPerimeter=0;endArrow=block;endFill=0;" edge="1" parent="WIyWlLk6GJQsqaUBKTNV-1" source="sPGVA4LzxNEKORVbQ_Oa-42" target="sPGVA4LzxNEKORVbQ_Oa-34">
          <mxGeometry relative="1" as="geometry" />
        </mxCell>
        <mxCell id="sPGVA4LzxNEKORVbQ_Oa-42" value="AdressBook" style="swimlane;fontStyle=0;align=center;verticalAlign=top;childLayout=stackLayout;horizontal=1;startSize=26;horizontalStack=0;resizeParent=1;resizeLast=0;collapsible=1;marginBottom=0;rounded=0;shadow=0;strokeWidth=1;" vertex="1" parent="WIyWlLk6GJQsqaUBKTNV-1">
          <mxGeometry x="320" y="430" width="160" height="104" as="geometry">
            <mxRectangle x="300" y="80" width="170" height="26" as="alternateBounds" />
          </mxGeometry>
        </mxCell>
        <mxCell id="sPGVA4LzxNEKORVbQ_Oa-44" value="" style="line;html=1;strokeWidth=1;align=left;verticalAlign=middle;spacingTop=-1;spacingLeft=3;spacingRight=3;rotatable=0;labelPosition=right;points=[];portConstraint=eastwest;" vertex="1" parent="sPGVA4LzxNEKORVbQ_Oa-42">
          <mxGeometry y="26" width="160" height="8" as="geometry" />
        </mxCell>
        <mxCell id="sPGVA4LzxNEKORVbQ_Oa-46" value="+&amp;nbsp;add_record()&lt;br&gt;+&amp;nbsp;show_happy_birthday()&lt;br&gt;+&amp;nbsp;iterator()&lt;br&gt;+&amp;nbsp;remove_record()&lt;br&gt;" style="text;html=1;align=left;verticalAlign=middle;resizable=0;points=[];autosize=1;strokeColor=none;fillColor=none;" vertex="1" parent="sPGVA4LzxNEKORVbQ_Oa-42">
          <mxGeometry y="34" width="160" height="70" as="geometry" />
        </mxCell>
        <mxCell id="sPGVA4LzxNEKORVbQ_Oa-75" style="edgeStyle=orthogonalEdgeStyle;rounded=0;orthogonalLoop=1;jettySize=auto;html=1;entryX=0.5;entryY=1;entryDx=0;entryDy=0;endArrow=block;endFill=0;" edge="1" parent="WIyWlLk6GJQsqaUBKTNV-1" source="sPGVA4LzxNEKORVbQ_Oa-51" target="sPGVA4LzxNEKORVbQ_Oa-55">
          <mxGeometry relative="1" as="geometry" />
        </mxCell>
        <mxCell id="sPGVA4LzxNEKORVbQ_Oa-51" value="UsersOutput" style="swimlane;fontStyle=0;align=center;verticalAlign=top;childLayout=stackLayout;horizontal=1;startSize=26;horizontalStack=0;resizeParent=1;resizeLast=0;collapsible=1;marginBottom=0;rounded=0;shadow=0;strokeWidth=1;" vertex="1" parent="WIyWlLk6GJQsqaUBKTNV-1">
          <mxGeometry x="-330" y="440" width="160" height="70" as="geometry">
            <mxRectangle x="300" y="80" width="170" height="26" as="alternateBounds" />
          </mxGeometry>
        </mxCell>
        <mxCell id="sPGVA4LzxNEKORVbQ_Oa-53" value="" style="line;html=1;strokeWidth=1;align=left;verticalAlign=middle;spacingTop=-1;spacingLeft=3;spacingRight=3;rotatable=0;labelPosition=right;points=[];portConstraint=eastwest;" vertex="1" parent="sPGVA4LzxNEKORVbQ_Oa-51">
          <mxGeometry y="26" width="160" height="8" as="geometry" />
        </mxCell>
        <mxCell id="sPGVA4LzxNEKORVbQ_Oa-54" value="+&amp;nbsp;create_output()" style="text;html=1;align=left;verticalAlign=middle;resizable=0;points=[];autosize=1;strokeColor=none;fillColor=none;" vertex="1" parent="sPGVA4LzxNEKORVbQ_Oa-51">
          <mxGeometry y="34" width="160" height="30" as="geometry" />
        </mxCell>
        <mxCell id="sPGVA4LzxNEKORVbQ_Oa-55" value="OutputInterface" style="swimlane;fontStyle=2;align=center;verticalAlign=top;childLayout=stackLayout;horizontal=1;startSize=26;horizontalStack=0;resizeParent=1;resizeLast=0;collapsible=1;marginBottom=0;rounded=0;shadow=0;strokeWidth=1;" vertex="1" parent="WIyWlLk6GJQsqaUBKTNV-1">
          <mxGeometry x="-330" y="320" width="160" height="70" as="geometry">
            <mxRectangle x="300" y="80" width="170" height="26" as="alternateBounds" />
          </mxGeometry>
        </mxCell>
        <mxCell id="sPGVA4LzxNEKORVbQ_Oa-56" value="" style="line;html=1;strokeWidth=1;align=left;verticalAlign=middle;spacingTop=-1;spacingLeft=3;spacingRight=3;rotatable=0;labelPosition=right;points=[];portConstraint=eastwest;" vertex="1" parent="sPGVA4LzxNEKORVbQ_Oa-55">
          <mxGeometry y="26" width="160" height="8" as="geometry" />
        </mxCell>
        <mxCell id="sPGVA4LzxNEKORVbQ_Oa-57" value="+&amp;nbsp;create_output()" style="text;html=1;align=left;verticalAlign=middle;resizable=0;points=[];autosize=1;strokeColor=none;fillColor=none;" vertex="1" parent="sPGVA4LzxNEKORVbQ_Oa-55">
          <mxGeometry y="34" width="160" height="30" as="geometry" />
        </mxCell>
        <mxCell id="sPGVA4LzxNEKORVbQ_Oa-76" style="edgeStyle=orthogonalEdgeStyle;rounded=0;orthogonalLoop=1;jettySize=auto;html=1;entryX=0.5;entryY=1;entryDx=0;entryDy=0;endArrow=block;endFill=0;" edge="1" parent="WIyWlLk6GJQsqaUBKTNV-1" source="sPGVA4LzxNEKORVbQ_Oa-58" target="sPGVA4LzxNEKORVbQ_Oa-55">
          <mxGeometry relative="1" as="geometry">
            <Array as="points">
              <mxPoint x="-70" y="410" />
              <mxPoint x="-250" y="410" />
            </Array>
          </mxGeometry>
        </mxCell>
        <mxCell id="sPGVA4LzxNEKORVbQ_Oa-58" value="NotesOutput" style="swimlane;fontStyle=0;align=center;verticalAlign=top;childLayout=stackLayout;horizontal=1;startSize=26;horizontalStack=0;resizeParent=1;resizeLast=0;collapsible=1;marginBottom=0;rounded=0;shadow=0;strokeWidth=1;" vertex="1" parent="WIyWlLk6GJQsqaUBKTNV-1">
          <mxGeometry x="-150" y="440" width="160" height="70" as="geometry">
            <mxRectangle x="300" y="80" width="170" height="26" as="alternateBounds" />
          </mxGeometry>
        </mxCell>
        <mxCell id="sPGVA4LzxNEKORVbQ_Oa-59" value="" style="line;html=1;strokeWidth=1;align=left;verticalAlign=middle;spacingTop=-1;spacingLeft=3;spacingRight=3;rotatable=0;labelPosition=right;points=[];portConstraint=eastwest;" vertex="1" parent="sPGVA4LzxNEKORVbQ_Oa-58">
          <mxGeometry y="26" width="160" height="8" as="geometry" />
        </mxCell>
        <mxCell id="sPGVA4LzxNEKORVbQ_Oa-60" value="+&amp;nbsp;create_output()" style="text;html=1;align=left;verticalAlign=middle;resizable=0;points=[];autosize=1;strokeColor=none;fillColor=none;" vertex="1" parent="sPGVA4LzxNEKORVbQ_Oa-58">
          <mxGeometry y="34" width="160" height="30" as="geometry" />
        </mxCell>
        <mxCell id="sPGVA4LzxNEKORVbQ_Oa-77" style="edgeStyle=orthogonalEdgeStyle;rounded=0;orthogonalLoop=1;jettySize=auto;html=1;endArrow=block;endFill=0;" edge="1" parent="WIyWlLk6GJQsqaUBKTNV-1" source="sPGVA4LzxNEKORVbQ_Oa-61">
          <mxGeometry relative="1" as="geometry">
            <mxPoint x="-250" y="390" as="targetPoint" />
            <Array as="points">
              <mxPoint x="-430" y="410" />
              <mxPoint x="-250" y="410" />
            </Array>
          </mxGeometry>
        </mxCell>
        <mxCell id="sPGVA4LzxNEKORVbQ_Oa-61" value="HelpInfoOutput" style="swimlane;fontStyle=0;align=center;verticalAlign=top;childLayout=stackLayout;horizontal=1;startSize=26;horizontalStack=0;resizeParent=1;resizeLast=0;collapsible=1;marginBottom=0;rounded=0;shadow=0;strokeWidth=1;" vertex="1" parent="WIyWlLk6GJQsqaUBKTNV-1">
          <mxGeometry x="-510" y="440" width="160" height="70" as="geometry">
            <mxRectangle x="300" y="80" width="170" height="26" as="alternateBounds" />
          </mxGeometry>
        </mxCell>
        <mxCell id="sPGVA4LzxNEKORVbQ_Oa-62" value="" style="line;html=1;strokeWidth=1;align=left;verticalAlign=middle;spacingTop=-1;spacingLeft=3;spacingRight=3;rotatable=0;labelPosition=right;points=[];portConstraint=eastwest;" vertex="1" parent="sPGVA4LzxNEKORVbQ_Oa-61">
          <mxGeometry y="26" width="160" height="8" as="geometry" />
        </mxCell>
        <mxCell id="sPGVA4LzxNEKORVbQ_Oa-63" value="+&amp;nbsp;create_output()" style="text;html=1;align=left;verticalAlign=middle;resizable=0;points=[];autosize=1;strokeColor=none;fillColor=none;" vertex="1" parent="sPGVA4LzxNEKORVbQ_Oa-61">
          <mxGeometry y="34" width="160" height="30" as="geometry" />
        </mxCell>
        <mxCell id="sPGVA4LzxNEKORVbQ_Oa-78" style="edgeStyle=orthogonalEdgeStyle;rounded=0;orthogonalLoop=1;jettySize=auto;html=1;endArrow=block;endFill=0;" edge="1" parent="WIyWlLk6GJQsqaUBKTNV-1" source="sPGVA4LzxNEKORVbQ_Oa-64">
          <mxGeometry relative="1" as="geometry">
            <mxPoint x="-250" y="390" as="targetPoint" />
            <Array as="points">
              <mxPoint x="-160" y="540" />
              <mxPoint x="-160" y="410" />
              <mxPoint x="-250" y="410" />
            </Array>
          </mxGeometry>
        </mxCell>
        <mxCell id="sPGVA4LzxNEKORVbQ_Oa-64" value="NoteOutput" style="swimlane;fontStyle=0;align=center;verticalAlign=top;childLayout=stackLayout;horizontal=1;startSize=26;horizontalStack=0;resizeParent=1;resizeLast=0;collapsible=1;marginBottom=0;rounded=0;shadow=0;strokeWidth=1;" vertex="1" parent="WIyWlLk6GJQsqaUBKTNV-1">
          <mxGeometry x="-150" y="530" width="160" height="70" as="geometry">
            <mxRectangle x="300" y="80" width="170" height="26" as="alternateBounds" />
          </mxGeometry>
        </mxCell>
        <mxCell id="sPGVA4LzxNEKORVbQ_Oa-65" value="" style="line;html=1;strokeWidth=1;align=left;verticalAlign=middle;spacingTop=-1;spacingLeft=3;spacingRight=3;rotatable=0;labelPosition=right;points=[];portConstraint=eastwest;" vertex="1" parent="sPGVA4LzxNEKORVbQ_Oa-64">
          <mxGeometry y="26" width="160" height="8" as="geometry" />
        </mxCell>
        <mxCell id="sPGVA4LzxNEKORVbQ_Oa-66" value="+&amp;nbsp;create_output()" style="text;html=1;align=left;verticalAlign=middle;resizable=0;points=[];autosize=1;strokeColor=none;fillColor=none;" vertex="1" parent="sPGVA4LzxNEKORVbQ_Oa-64">
          <mxGeometry y="34" width="160" height="30" as="geometry" />
        </mxCell>
        <mxCell id="sPGVA4LzxNEKORVbQ_Oa-80" style="edgeStyle=orthogonalEdgeStyle;rounded=0;orthogonalLoop=1;jettySize=auto;html=1;endArrow=block;endFill=0;entryX=0.5;entryY=1;entryDx=0;entryDy=0;" edge="1" parent="WIyWlLk6GJQsqaUBKTNV-1" source="sPGVA4LzxNEKORVbQ_Oa-67" target="sPGVA4LzxNEKORVbQ_Oa-55">
          <mxGeometry relative="1" as="geometry">
            <mxPoint x="-340" y="410" as="targetPoint" />
            <Array as="points">
              <mxPoint x="-340" y="565" />
              <mxPoint x="-340" y="410" />
              <mxPoint x="-250" y="410" />
            </Array>
          </mxGeometry>
        </mxCell>
        <mxCell id="sPGVA4LzxNEKORVbQ_Oa-67" value="UserOutput" style="swimlane;fontStyle=0;align=center;verticalAlign=top;childLayout=stackLayout;horizontal=1;startSize=26;horizontalStack=0;resizeParent=1;resizeLast=0;collapsible=1;marginBottom=0;rounded=0;shadow=0;strokeWidth=1;" vertex="1" parent="WIyWlLk6GJQsqaUBKTNV-1">
          <mxGeometry x="-330" y="530" width="160" height="70" as="geometry">
            <mxRectangle x="300" y="80" width="170" height="26" as="alternateBounds" />
          </mxGeometry>
        </mxCell>
        <mxCell id="sPGVA4LzxNEKORVbQ_Oa-68" value="" style="line;html=1;strokeWidth=1;align=left;verticalAlign=middle;spacingTop=-1;spacingLeft=3;spacingRight=3;rotatable=0;labelPosition=right;points=[];portConstraint=eastwest;" vertex="1" parent="sPGVA4LzxNEKORVbQ_Oa-67">
          <mxGeometry y="26" width="160" height="8" as="geometry" />
        </mxCell>
        <mxCell id="sPGVA4LzxNEKORVbQ_Oa-69" value="+&amp;nbsp;create_output()" style="text;html=1;align=left;verticalAlign=middle;resizable=0;points=[];autosize=1;strokeColor=none;fillColor=none;" vertex="1" parent="sPGVA4LzxNEKORVbQ_Oa-67">
          <mxGeometry y="34" width="160" height="30" as="geometry" />
        </mxCell>
      </root>
    </mxGraphModel>
  </diagram>
</mxfile>
